# xmcd
#
# Track frame offsets: 
#        150
#        18133
#        39666
#        57648
#
# Disc length: 1007 seconds
#
# Revision: 0
# Processed by: cddbd v1.5.2PL0 Copyright (c) Steve Scherf et al.
# Submitted via: ExactAudioCopyFreeDBPlugin 1.0
#
DISCID=2d03ed04
DTITLE=怒髪天 - 団地でDAN!RAN!
DYEAR=2013
DGENRE=JPop
TTITLE0=団地でDAN!RAN! 怒髪天 feat. キヨサク(MONGOL800)
TTITLE1=流れる雲のように(studio live)
TTITLE2=団地でDAN!RAN!(増子直純フル歌唱 ver) 怒髪天 feat. キヨサク(MONGOL800)
TTITLE3=団地でDAN!RAN!(カラオケ) 怒髪天 feat. キヨサク(MONGOL800)
EXTD=
EXTT0=
EXTT1=
EXTT2=
EXTT3=
PLAYORDER=
